 <svg  version="1.0" xmlns="http://www.w3.org/2000/svg"  width="143.000000pt" height="149.000000pt" viewBox="0 0 143.000000 149.000000"  preserveAspectRatio="xMidYMid meet">  <g transform="translate(0.000000,149.000000) scale(0.100000,-0.100000)" fill="#034b6e" stroke="none"> <path d="M988 1287 c-47 -39 -63 -104 -36 -146 10 -16 3 -27 -55 -81 -68 -63 -85 -100 -47 -100 11 0 46 28 82 66 l63 65 33 -16 c26 -13 39 -14 65 -6 96 32 121 150 46 220 -33 30 -114 30 -151 -2z m130 -37 c30 -28 30 -86 0 -117 -28 -30 -89 -32 -118 -3 -26 26 -26 80 1 114 26 33 84 36 117 6z"/> <path d="M276 1248 c-3 -13 -10 -52 -15 -88 -6 -36 -15 -90 -20 -120 -6 -30 -22 -122 -37 -205 -14 -82 -30 -170 -34 -195 -5 -25 -13 -72 -18 -105 -6 -33 -15 -82 -21 -109 -14 -59 -6 -71 52 -79 23 -3 62 -9 87 -12 120 -16 110 -10 110 -70 0 -30 4 -56 8 -59 5 -3 46 -1 93 4 300 33 316 33 391 21 211 -36 218 -36 218 13 l0 33 103 12 c167 20 151 5 144 124 -4 56 -11 185 -16 287 -10 177 -15 263 -29 470 l-7 95 -32 3 -31 3 12 -36 c16 -45 6 -106 -21 -144 -25 -33 -30 -48 -44 -136 -13 -84 -20 -124 -55 -320 -14 -82 -30 -170 -34 -195 -4 -25 -13 -76 -20 -113 l-14 -69 -40 5 c-23 3 -86 12 -141 21 -55 9 -116 18 -135 21 -19 3 -57 10 -85 15 -66 13 -336 57 -400 65 -76 10 -76 10 -59 95 8 41 19 99 25 128 5 28 14 78 20 110 19 107 28 157 45 257 9 55 20 116 25 135 5 19 9 52 9 74 0 32 3 37 18 31 9 -4 60 -14 112 -22 52 -8 118 -19 145 -24 28 -4 79 -13 115 -18 36 -5 79 -12 95 -15 114 -22 112 -22 94 18 -8 18 -9 33 -1 55 12 35 4 39 -43 21 -36 -14 -281 -15 -330 -2 -42 11 -120 26 -192 37 -39 6 -43 5 -47 -17z m984 -205 c0 -39 25 -457 36 -610 6 -80 6 -83 -17 -91 -36 -13 -179 -24 -179 -14 0 5 11 72 24 148 111 636 100 584 122 584 8 0 14 -8 14 -17z m-698 -750 c49 -9 86 -19 83 -21 -10 -10 -209 -32 -217 -24 -5 5 -11 21 -14 35 -4 25 -2 27 28 27 18 0 72 -7 120 -17z"/> </g> </svg> 